<svg width="36" height="36" viewBox="0 0 36 36" fill="none" xmlns="http://www.w3.org/2000/svg">
<g clip-path="url(#clip0_316_39)">
<path d="M3.09348 9.9429C3.09348 7.72504 4.89798 5.92053 7.11612 5.92053C9.33398 5.92053 11.1388 7.72504 11.1388 9.9429V13.1847C12.2561 12.843 13.0715 11.8023 13.0715 10.5743V2.729C13.0715 1.22415 11.8471 0 10.3423 0H3.88998C2.38513 0 1.16071 1.22415 1.16071 2.729V10.5743C1.16071 11.8023 1.97589 12.843 3.09348 13.1847V9.9429Z" fill="#F4E2E2"/>
<path d="M23.7162 0H17.2636C15.7588 0 14.5346 1.22415 14.5346 2.729V10.5743C14.5346 12.0792 15.7588 13.3033 17.2636 13.3033H23.7162C25.221 13.3033 26.4454 12.0792 26.4454 10.5743V2.729C26.4454 1.22415 25.221 0 23.7162 0Z" fill="#F4E2E2"/>
<path d="M18.7179 16.9554C17.6498 16.9554 16.7843 17.8212 16.7843 18.889V17.9041C16.7843 16.8362 15.9186 15.9705 14.8505 15.9705C13.7826 15.9705 12.9169 16.836 12.9169 17.9041V17.0757C12.9169 16.0601 12.1338 15.2281 11.1387 15.1487C11.0874 15.1449 11.0358 15.1422 10.9833 15.1422C10.2038 15.1422 9.53255 15.6039 9.22658 16.2682C9.11342 16.5141 9.0497 16.7874 9.0497 17.0757V9.94287C9.0497 8.875 8.18398 8.00928 7.11611 8.00928C6.04823 8.00928 5.18251 8.875 5.18251 9.94287V26.5432L5.09874 26.5325L3.90755 21.4337C3.66448 20.3939 2.62435 19.7476 1.58449 19.9907C0.492448 19.9907 -0.197768 20.8608 0.0505233 21.9243L1.43178 27.8358C2.15413 32.461 5.89305 36 5.89305 36H17.6407C19.6037 33.0144 20.6499 29.5197 20.6504 25.9464L20.6515 18.889C20.6515 17.8212 19.7858 16.9554 18.7179 16.9554V16.9554Z" fill="#F4E2E2"/>
</g>
<defs>
<clipPath id="clip0_316_39">
<rect width="36" height="36" fill="white"/>
</clipPath>
</defs>
</svg>
