<svg width="36" height="36" viewBox="0 0 36 36" fill="none" xmlns="http://www.w3.org/2000/svg">
<g clip-path="url(#clip0_316_46)">
<path d="M18 7.5C20.0711 7.5 21.75 5.82107 21.75 3.75C21.75 1.67893 20.0711 0 18 0C15.9289 0 14.25 1.67893 14.25 3.75C14.25 5.82107 15.9289 7.5 18 7.5Z" fill="#F4E2E2"/>
<path d="M28.5 28.5C30.5711 28.5 32.25 26.8211 32.25 24.75C32.25 22.6789 30.5711 21 28.5 21C26.4289 21 24.75 22.6789 24.75 24.75C24.75 26.8211 26.4289 28.5 28.5 28.5Z" fill="#F4E2E2"/>
<path d="M7.5 28.5C9.57107 28.5 11.25 26.8211 11.25 24.75C11.25 22.6789 9.57107 21 7.5 21C5.42893 21 3.75 22.6789 3.75 24.75C3.75 26.8211 5.42893 28.5 7.5 28.5Z" fill="#F4E2E2"/>
<path d="M24.375 15H11.625C11.004 15 10.5 14.496 10.5 13.875V13.125C10.5 10.8495 12.3495 9 14.625 9H21.375C23.6505 9 25.5 10.8495 25.5 13.125V13.875C25.5 14.496 24.996 15 24.375 15Z" fill="#F4E2E2"/>
<path d="M34.875 36H22.125C21.504 36 21 35.496 21 34.875V34.125C21 31.8495 22.8495 30 25.125 30H31.875C34.1505 30 36 31.8495 36 34.125V34.875C36 35.496 35.496 36 34.875 36Z" fill="#F4E2E2"/>
<path d="M13.875 36H1.125C0.504 36 0 35.496 0 34.875V34.125C0 31.8495 1.8495 30 4.125 30H10.875C13.1505 30 15 31.8495 15 34.125V34.875C15 35.496 14.496 36 13.875 36Z" fill="#F4E2E2"/>
<path d="M4.125 19.143C3.504 19.143 3 18.639 3 18.018C3 12.204 6.408 6.86247 11.682 4.40997C12.2475 4.14897 12.9135 4.39197 13.1775 4.95597C13.437 5.51847 13.194 6.18747 12.63 6.44997C8.1465 8.53497 5.25 13.0755 5.25 18.018C5.25 18.639 4.746 19.143 4.125 19.143Z" fill="#F4E2E2"/>
<path d="M31.875 19.143C31.254 19.143 30.75 18.639 30.75 18.018C30.75 13.0755 27.8535 8.53501 23.37 6.45001C22.8075 6.18751 22.563 5.51851 22.824 4.95451C23.0865 4.39201 23.754 4.14751 24.3195 4.40851C29.592 6.86251 33 12.204 33 18.018C33 18.639 32.496 19.143 31.875 19.143Z" fill="#F4E2E2"/>
<path d="M18 33.018C17.469 33.018 16.947 32.9895 16.431 32.937C15.813 32.8725 15.3645 32.319 15.429 31.701C15.4935 31.0845 16.0395 30.6435 16.665 30.699C17.568 30.7935 18.5145 30.789 19.4205 30.69C20.034 30.6195 20.5935 31.068 20.6625 31.686C20.73 32.304 20.2845 32.859 19.6665 32.928C19.1205 32.9865 18.564 33.018 18 33.018Z" fill="#F4E2E2"/>
</g>
<defs>
<clipPath id="clip0_316_46">
<rect width="36" height="36" fill="white"/>
</clipPath>
</defs>
</svg>
