<svg width="36" height="36" viewBox="0 0 36 36" fill="none" xmlns="http://www.w3.org/2000/svg">
<path d="M8.39892 0.218874C7.8157 0.621729 7.22121 1.20222 4.10507 4.4314L2.89919 5.67803V6.04282C2.89919 6.50595 2.96118 6.86439 3.16967 7.58446C3.60075 9.07217 4.21214 10.6519 5.26306 12.9865C6.44077 15.6035 7.52268 17.7669 8.16507 18.801C8.47218 19.2958 8.71448 19.797 8.82718 20.1776C8.90607 20.4473 9.09766 21.2815 9.09766 21.3608C9.09766 21.3894 8.90889 21.7288 8.67785 22.1158C7.86078 23.4861 7.5734 23.9302 6.64926 25.2308C5.74203 26.5059 5.43493 26.9849 4.67421 28.3236C3.84868 29.7732 3.48805 30.3537 2.65971 31.5591C2.44276 31.8763 2.1272 32.3521 1.96097 32.6154C1.45664 33.4116 0.416988 35.1911 0.101429 35.8002L0 36H0.349368C0.890325 36 1.34112 35.8636 2.33006 35.4005C3.70499 34.7565 4.71929 34.1443 5.47437 33.5004C5.65187 33.3481 5.99279 33.0563 6.23228 32.8533C6.47176 32.6503 6.88875 32.3109 7.15641 32.0983C8.2017 31.2799 8.34257 31.1657 8.72011 30.8232C9.55973 30.0682 10.4134 29.2213 12.4758 27.0928L13.5577 25.9762H13.9409C14.186 25.9762 14.3833 25.9921 14.4819 26.0206C14.8284 26.1221 15.3018 26.4013 15.9864 26.9025C16.7809 27.483 17.4205 27.9017 18.108 28.2887C18.9786 28.7803 19.9985 29.18 21.9031 29.7669C23.9993 30.414 25.6983 30.7946 27.2845 30.9754C27.8959 31.0452 29.2342 31.0547 29.6653 30.9913C30.7923 30.8295 31.646 30.4076 34.9481 28.3933C35.5059 28.0539 35.9793 27.7589 35.999 27.7367C36.0272 27.7082 35.4665 27.54 33.3506 26.9437C29.8822 25.9699 28.6876 25.6019 27.1493 25.0373C25.1883 24.314 23.4809 23.4639 22.0046 22.4774C21.21 21.9508 20.8438 21.6431 19.7787 20.6312L19.1786 20.0603L19.1927 19.6003C19.2068 19.0864 19.2378 18.9374 19.4125 18.5408C19.6266 18.0587 19.9675 17.5638 21.5763 15.4132C22.168 14.6201 22.9569 13.5353 23.3231 13.0024C23.6922 12.4695 24.2388 11.6987 24.5375 11.2895C25.3151 10.2173 25.6476 9.63362 25.9068 8.87232C25.9941 8.61538 26.3801 7.01031 26.3604 6.98493C26.3491 6.97224 23.7908 6.45837 23.1569 6.341C21.9792 6.12213 21.2297 6.04282 20.5592 6.06186C20.145 6.07454 19.9929 6.09675 19.5364 6.19826L19.0011 6.31562L18.7644 6.59159C18.4827 6.91832 18.2601 7.22918 17.2233 8.75178C16.7894 9.38937 16.0456 10.4647 15.5694 11.1404C15.0933 11.8192 14.6256 12.4853 14.527 12.6217L14.3523 12.8723H14.1466C13.9043 12.8755 13.8367 12.8438 13.6592 12.6312C13.0703 11.9366 11.7376 9.30056 11.0333 7.43537C10.4951 6.00793 10.1937 4.99604 9.68933 2.89929C9.39631 1.68438 9.09484 0.59318 8.98214 0.345758C8.95678 0.285488 8.88353 0.180809 8.82436 0.117367L8.7173 2.93367e-07L8.39892 0.218874Z" fill="#949C86"/>
</svg>
