<svg width="36" height="36" viewBox="0 0 36 36" fill="none" xmlns="http://www.w3.org/2000/svg">
<path d="M21.7528 35.0482V29.3188H14.2472V35.0482H21.7528ZM21.7528 27.292V6.8682C21.7528 3.7067 18.7415 0.96217 17.9999 0.96217C17.2583 0.96217 14.2471 3.7067 14.2471 6.8682V27.292H21.7528ZM32.9583 35.0482V29.3188H25.4527V35.0482H32.9583ZM32.9583 27.292V6.8682C32.9583 3.7067 29.947 0.96217 29.2054 0.96217C28.4638 0.96217 25.4526 3.7067 25.4526 6.8682V27.292H32.9583ZM10.5479 35.0482V29.3188H3.04233V35.0482H10.5479ZM10.5479 27.292V6.8682C10.5479 3.7067 7.53664 0.96217 6.79504 0.96217C6.05344 0.96217 3.04221 3.7067 3.04221 6.8682V27.292H10.5479Z" fill="#F4E2E2"/>
</svg>
