<svg width="36" height="39" viewBox="0 0 36 39" fill="none" xmlns="http://www.w3.org/2000/svg">
<g clip-path="url(#clip0_316_77)">
<mask id="mask0_316_77" style="mask-type:luminance" maskUnits="userSpaceOnUse" x="2" y="0" width="32" height="39">
<path d="M33.2533 0H2.53333V38.4H33.2533V0Z" fill="white"/>
</mask>
<g mask="url(#mask0_316_77)">
<path d="M30.7813 4.77905C30.5566 4.63738 30.2853 4.68273 30.0983 4.89339C28.446 6.74555 26.9276 7.64495 25.4519 7.64495C23.9763 7.64495 22.5433 6.79127 20.7629 4.86289C16.8969 0.739352 13.0981 0.746974 8.65902 4.68758C8.34803 4.96198 8.34803 4.96198 8.40291 12.8966C8.40291 16.014 8.4456 19.8783 8.40291 20.4196C8.31861 20.8271 8.51458 21.2429 8.84057 21.3483C9.03662 21.4117 9.245 21.3493 9.39683 21.1818C10.9442 19.6895 12.8332 18.8562 14.7872 18.8037C16.0595 18.8123 17.3125 19.1935 18.4457 19.9165C19.6841 20.7463 21.0597 21.2055 22.4641 21.258C29.8301 21.258 31.0435 6.18913 31.0923 5.54888C31.126 5.23656 31.0023 4.93063 30.7813 4.77905Z" fill="#F4E2E2"/>
<path d="M6.52472 0H5.95155C5.25443 0 4.68933 0.706375 4.68933 1.57777V36.8222C4.68933 37.6937 5.25443 38.4 5.95155 38.4H6.52472C7.22184 38.4 7.78694 37.6937 7.78694 36.8222V1.57777C7.78694 0.706375 7.22184 0 6.52472 0Z" fill="#F4E2E2"/>
</g>
</g>
<defs>
<clipPath id="clip0_316_77">
<rect width="36" height="38.4" fill="white"/>
</clipPath>
</defs>
</svg>
