<svg width="36" height="36" viewBox="0 0 36 36" fill="none" xmlns="http://www.w3.org/2000/svg">
<path d="M24.3344 32.4522C24.3344 33.5838 23.3684 35.0465 22.154 35.0465H13.8458C12.6315 35.0465 11.6655 33.5838 11.6655 32.4522V24.338H3.55124C2.41965 24.338 0.956909 23.372 0.956909 22.1576V13.8494C0.956909 12.6351 2.41965 11.6691 3.55124 11.6691H11.6655V3.55482C11.6655 2.42323 12.6315 0.960495 13.8458 0.960495H22.154C23.3684 0.960495 24.3344 2.42323 24.3344 3.55482V11.6691H32.4486C33.5802 11.6691 35.043 12.6351 35.043 13.8494V22.1576C35.043 23.372 33.5802 24.338 32.4486 24.338H24.3344V32.4522Z" fill="#F4E2E2"/>
</svg>
