<svg width="36" height="36" viewBox="0 0 36 36" fill="none" xmlns="http://www.w3.org/2000/svg">
<g clip-path="url(#clip0_316_86)">
<mask id="mask0_316_86" style="mask-type:luminance" maskUnits="userSpaceOnUse" x="0" y="0" width="36" height="36">
<path d="M36 0H0V36H36V0Z" fill="white"/>
</mask>
<g mask="url(#mask0_316_86)">
<path d="M9 14.1403H1.28787C0.579916 14.1403 0.00753138 14.7126 0 15.4281V34.7085C0 35.4239 0.579916 35.9963 1.28787 35.9963H9C9.71548 35.9963 10.2879 35.4164 10.2879 34.7085V15.4281C10.2879 14.7126 9.70795 14.1403 9 14.1403Z" fill="#F4E2E2"/>
<path d="M21.856 0.00378418H14.1438C13.4359 0.00378418 12.856 0.576169 12.856 1.28412V34.7084C12.856 35.4239 13.4359 35.9962 14.1438 35.9962H21.856C22.5715 35.9962 23.1438 35.4163 23.1438 34.7084V1.29166C23.1438 0.576169 22.5639 0.00378418 21.856 0.00378418Z" fill="#F4E2E2"/>
<path d="M34.7124 10.2841H27.0003C26.2848 10.2841 25.7124 10.8565 25.7124 11.572V34.7084C25.7124 35.4239 26.2923 35.9963 27.0003 35.9963H34.7124C35.4279 35.9963 36.0003 35.4163 36.0003 34.7084V11.572C36.0003 10.8565 35.4204 10.2841 34.7124 10.2841Z" fill="#F4E2E2"/>
</g>
</g>
<defs>
<clipPath id="clip0_316_86">
<rect width="36" height="36" fill="white"/>
</clipPath>
</defs>
</svg>
