<svg width="36" height="36" viewBox="0 0 36 36" fill="none" xmlns="http://www.w3.org/2000/svg">
<g clip-path="url(#clip0_316_84)">
<path d="M21.7244 6.80833C23.389 7.98243 24.5562 9.96927 24.7687 12.2756C25.4475 12.6323 26.201 12.8376 26.9998 12.8376C29.916 12.8376 32.2796 10.1785 32.2796 6.8983C32.2796 3.61756 29.916 0.958496 26.9998 0.958496C24.1114 0.959507 21.7685 3.57106 21.7244 6.80833ZM18.2655 18.9699C21.1817 18.9699 23.5453 16.3104 23.5453 13.0301C23.5453 9.74992 21.1813 7.09086 18.2655 7.09086C15.3498 7.09086 12.9848 9.75043 12.9848 13.0307C12.9848 16.3109 15.3498 18.9699 18.2655 18.9699ZM20.5051 19.3748H16.025C12.2974 19.3748 9.26484 22.7869 9.26484 26.9805V33.1442L9.27877 33.2408L9.65616 33.3736C13.2135 34.6241 16.304 35.0411 18.8478 35.0411C23.8162 35.0411 26.6961 33.4474 26.8735 33.3458L27.2262 33.1452H27.2639V26.9805C27.2653 22.7869 24.2327 19.3748 20.5051 19.3748ZM29.2403 13.243H24.7948C24.7467 15.2439 23.9874 17.0458 22.7865 18.3417C26.0999 19.4502 28.5242 22.9067 28.5242 26.9896V28.889C32.9135 28.708 35.4429 27.3085 35.6096 27.2145L35.9623 27.0133H36V20.8476C36 16.6545 32.9674 13.243 29.2403 13.243ZM9.00112 12.8387C10.034 12.8387 10.995 12.4995 11.8091 11.9218C12.0678 10.0229 12.9727 8.36353 14.2652 7.2334C14.2706 7.1222 14.28 7.01202 14.28 6.89981C14.28 3.61908 11.916 0.960013 9.00112 0.960013C6.08446 0.960013 3.7213 3.61908 3.7213 6.89981C3.7213 10.179 6.08446 12.8387 9.00112 12.8387ZM13.7427 18.3417C12.5477 17.0523 11.7911 15.2601 11.7358 13.2712C11.5709 13.2576 11.4079 13.243 11.2398 13.243H6.76016C3.03257 13.243 0 16.6545 0 20.8476V27.0123L0.0139274 27.1074L0.391314 27.2412C3.24508 28.2436 5.79199 28.7055 8.00419 28.8511V26.9896C8.00509 22.9067 10.4285 19.4512 13.7427 18.3417Z" fill="#F4E2E2"/>
</g>
<defs>
<clipPath id="clip0_316_84">
<rect width="36" height="36" fill="white"/>
</clipPath>
</defs>
</svg>
