<svg width="36" height="36" viewBox="0 0 36 36" fill="none" xmlns="http://www.w3.org/2000/svg">
<g clip-path="url(#clip0_316_57)">
<path d="M17.9996 9.00021C20.4848 9.00021 22.4995 6.98553 22.4995 4.50029C22.4995 2.01505 20.4848 0.000366211 17.9996 0.000366211C15.5144 0.000366211 13.4997 2.01505 13.4997 4.50029C13.4997 6.98553 15.5144 9.00021 17.9996 9.00021Z" fill="#F4E2E2"/>
<path d="M24.7405 21.2309L23.719 13.2751C23.6042 12.1209 22.6413 11.2501 21.4825 11.2501H20.2495C19.9503 11.2501 19.6646 11.3694 19.4531 11.5786L17.9996 13.0321L16.5461 11.5786C16.3346 11.3694 16.0489 11.2501 15.7496 11.2501H14.5189C13.3579 11.2501 12.3949 12.1209 12.2824 13.2458L11.2587 21.2332C11.2182 21.5527 11.3172 21.8767 11.531 22.1174C11.7447 22.3604 12.0507 22.4999 12.3747 22.4999H13.5897L14.5302 33.9747C14.6427 35.1267 15.6079 35.9997 16.7689 35.9997H19.2326C20.3935 35.9997 21.3565 35.1267 21.4735 33.9545L22.4118 22.4999H23.6245C23.9485 22.4999 24.2545 22.3604 24.4682 22.1174C24.6842 21.8767 24.7832 21.5527 24.7405 21.2309Z" fill="#F4E2E2"/>
<path d="M29.2494 9.00021C31.7346 9.00021 33.7493 6.98553 33.7493 4.50029C33.7493 2.01505 31.7346 0.000366211 29.2494 0.000366211C26.7641 0.000366211 24.7495 2.01505 24.7495 4.50029C24.7495 6.98553 26.7641 9.00021 29.2494 9.00021Z" fill="#F4E2E2"/>
<path d="M6.74986 0.000366211C4.26815 0.000366211 2.24994 2.01858 2.24994 4.50029C2.24994 6.982 4.26815 9.00021 6.74986 9.00021C9.22932 9.00021 11.2498 6.982 11.2498 4.50029C11.2498 2.01858 9.22932 0.000366211 6.74986 0.000366211Z" fill="#F4E2E2"/>
<path d="M35.9903 21.2309L34.9688 13.2773C34.8541 12.1209 33.8933 11.2501 32.7323 11.2501H31.4994C31.2001 11.2501 30.9144 11.3694 30.7029 11.5786L29.2494 13.0321L27.7959 11.5786C27.5844 11.3694 27.2987 11.2501 27.0017 11.2501H25.7687C25.6292 11.2501 25.5032 11.2996 25.3705 11.3244C25.6607 11.8374 25.888 12.3931 25.9555 13.0163L26.9747 20.9452C27.1007 21.9104 26.7992 22.8824 26.1512 23.6137C25.8452 23.9646 25.4537 24.2121 25.0352 24.4056L25.7822 31.7248C25.897 32.879 26.8599 33.7497 28.0209 33.7497H30.4846C31.6456 33.7497 32.6086 32.8767 32.7256 31.7045L33.6616 22.4999H34.8743C35.1983 22.4999 35.5043 22.3604 35.718 22.1174C35.934 21.8767 36.033 21.5527 35.9903 21.2309Z" fill="#F4E2E2"/>
<path d="M9.84123 23.6024C9.20224 22.8802 8.90525 21.9104 9.02675 20.9497L10.0505 12.9601C10.109 12.3616 10.3295 11.8216 10.6107 11.3221C10.4847 11.2996 10.3655 11.2501 10.2327 11.2501H8.99975C8.7005 11.2501 8.41476 11.3694 8.20326 11.5786L6.74979 13.0321L5.29631 11.5786C5.08482 11.3694 4.79907 11.2501 4.50208 11.2501H3.26903C2.10805 11.2501 1.14506 12.1209 1.03257 13.2458L0.00883456 21.2332C-0.0316647 21.5527 0.0673335 21.8767 0.28108 22.1174C0.494826 22.3604 0.803071 22.4999 1.12482 22.4999H2.33979L3.28028 31.7248C3.39278 32.8767 4.35801 33.7497 5.51899 33.7497H7.9827C9.14367 33.7497 10.1067 32.8767 10.2237 31.7045L10.9706 24.4034C10.55 24.2076 10.1562 23.9579 9.84123 23.6024Z" fill="#F4E2E2"/>
</g>
<defs>
<clipPath id="clip0_316_57">
<rect width="36" height="36" fill="white"/>
</clipPath>
</defs>
</svg>
